<?xml version="1.0" encoding="UTF-8" standalone="no"?>
<svg width="193px" height="139px" viewBox="0 0 193 139" version="1.1" xmlns="http://www.w3.org/2000/svg" xmlns:xlink="http://www.w3.org/1999/xlink">
    <!-- Generator: Sketch 3.8.1 (29687) - http://www.bohemiancoding.com/sketch -->
    <title>Group 7</title>
    <desc>Created with Sketch.</desc>
    <defs></defs>
    <g id="Page-1" stroke="none" stroke-width="1" fill="none" fill-rule="evenodd">
        <g id="DESKTOP" transform="translate(-515.000000, -2291.000000)">
            <g id="Group-9" transform="translate(41.000000, 2243.000000)">
                <g id="Group-8" transform="translate(474.000000, 0.000000)">
                    <g id="Group-7" transform="translate(0.000000, 48.000000)">
                        <g id="Group-3">
                            <path d="M0,9.152 C0,6.62932072 0.88732446,4.47334228 2.662,2.684 C4.43667554,0.89465772 6.58532072,0 9.108,0 C11.6306793,0 13.7793245,0.89465772 15.554,2.684 C17.3286755,4.47334228 18.216,6.62932072 18.216,9.152 C18.216,11.6453458 17.3213423,13.7866577 15.532,15.576 C13.7426577,17.3653423 11.6013458,18.26 9.108,18.26 C6.6146542,18.26 4.47334228,17.3653423 2.684,15.576 C0.89465772,13.7866577 0,11.6453458 0,9.152 L0,9.152 Z" id="Path" fill="#D8D8D8"></path>
                            <path d="M29,9.152 C29,6.62932072 29.8873245,4.47334228 31.662,2.684 C33.4366755,0.89465772 35.5853207,0 38.108,0 C40.6306793,0 42.7793245,0.89465772 44.554,2.684 C46.3286755,4.47334228 47.216,6.62932072 47.216,9.152 C47.216,11.6453458 46.3213423,13.7866577 44.532,15.576 C42.7426577,17.3653423 40.6013458,18.26 38.108,18.26 C35.6146542,18.26 33.4733423,17.3653423 31.684,15.576 C29.8946577,13.7866577 29,11.6453458 29,9.152 L29,9.152 Z" id="Path" fill="#D8D8D8"></path>
                            <path d="M58,9.152 C58,6.62932072 58.8873245,4.47334228 60.662,2.684 C62.4366755,0.89465772 64.5853207,0 67.108,0 C69.6306793,0 71.7793245,0.89465772 73.554,2.684 C75.3286755,4.47334228 76.216,6.62932072 76.216,9.152 C76.216,11.6453458 75.3213423,13.7866577 73.532,15.576 C71.7426577,17.3653423 69.6013458,18.26 67.108,18.26 C64.6146542,18.26 62.4733423,17.3653423 60.684,15.576 C58.8946577,13.7866577 58,11.6453458 58,9.152 L58,9.152 Z" id="Path" fill="#000000"></path>
                            <path d="M87,9.152 C87,6.62932072 87.8873245,4.47334228 89.662,2.684 C91.4366755,0.89465772 93.5853207,0 96.108,0 C98.6306793,0 100.779324,0.89465772 102.554,2.684 C104.328676,4.47334228 105.216,6.62932072 105.216,9.152 C105.216,11.6453458 104.321342,13.7866577 102.532,15.576 C100.742658,17.3653423 98.6013458,18.26 96.108,18.26 C93.6146542,18.26 91.4733423,17.3653423 89.684,15.576 C87.8946577,13.7866577 87,11.6453458 87,9.152 L87,9.152 Z" id="Path" fill="#D8D8D8"></path>
                            <path d="M116,9.152 C116,6.62932072 116.887324,4.47334228 118.662,2.684 C120.436676,0.89465772 122.585321,0 125.108,0 C127.630679,0 129.779324,0.89465772 131.554,2.684 C133.328676,4.47334228 134.216,6.62932072 134.216,9.152 C134.216,11.6453458 133.321342,13.7866577 131.532,15.576 C129.742658,17.3653423 127.601346,18.26 125.108,18.26 C122.614654,18.26 120.473342,17.3653423 118.684,15.576 C116.894658,13.7866577 116,11.6453458 116,9.152 L116,9.152 Z" id="Path" fill="#D8D8D8"></path>
                            <path d="M145,9.152 C145,6.62932072 145.887324,4.47334228 147.662,2.684 C149.436676,0.89465772 151.585321,0 154.108,0 C156.630679,0 158.779324,0.89465772 160.554,2.684 C162.328676,4.47334228 163.216,6.62932072 163.216,9.152 C163.216,11.6453458 162.321342,13.7866577 160.532,15.576 C158.742658,17.3653423 156.601346,18.26 154.108,18.26 C151.614654,18.26 149.473342,17.3653423 147.684,15.576 C145.894658,13.7866577 145,11.6453458 145,9.152 L145,9.152 Z" id="Path" fill="#D8D8D8"></path>
                            <path d="M174,9.152 C174,6.62932072 174.887324,4.47334228 176.662,2.684 C178.436676,0.89465772 180.585321,0 183.108,0 C185.630679,0 187.779324,0.89465772 189.554,2.684 C191.328676,4.47334228 192.216,6.62932072 192.216,9.152 C192.216,11.6453458 191.321342,13.7866577 189.532,15.576 C187.742658,17.3653423 185.601346,18.26 183.108,18.26 C180.614654,18.26 178.473342,17.3653423 176.684,15.576 C174.894658,13.7866577 174,11.6453458 174,9.152 L174,9.152 Z" id="Path" fill="#D8D8D8"></path>
                            <path d="M0,39.152 C0,36.6293207 0.88732446,34.4733423 2.662,32.684 C4.43667554,30.8946577 6.58532072,30 9.108,30 C11.6306793,30 13.7793245,30.8946577 15.554,32.684 C17.3286755,34.4733423 18.216,36.6293207 18.216,39.152 C18.216,41.6453458 17.3213423,43.7866577 15.532,45.576 C13.7426577,47.3653423 11.6013458,48.26 9.108,48.26 C6.6146542,48.26 4.47334228,47.3653423 2.684,45.576 C0.89465772,43.7866577 0,41.6453458 0,39.152 L0,39.152 Z" id="Path" fill="#D8D8D8"></path>
                            <path d="M29,39.152 C29,36.6293207 29.8873245,34.4733423 31.662,32.684 C33.4366755,30.8946577 35.5853207,30 38.108,30 C40.6306793,30 42.7793245,30.8946577 44.554,32.684 C46.3286755,34.4733423 47.216,36.6293207 47.216,39.152 C47.216,41.6453458 46.3213423,43.7866577 44.532,45.576 C42.7426577,47.3653423 40.6013458,48.26 38.108,48.26 C35.6146542,48.26 33.4733423,47.3653423 31.684,45.576 C29.8946577,43.7866577 29,41.6453458 29,39.152 L29,39.152 Z" id="Path" fill="#D8D8D8"></path>
                            <path d="M58,39.152 C58,36.6293207 58.8873245,34.4733423 60.662,32.684 C62.4366755,30.8946577 64.5853207,30 67.108,30 C69.6306793,30 71.7793245,30.8946577 73.554,32.684 C75.3286755,34.4733423 76.216,36.6293207 76.216,39.152 C76.216,41.6453458 75.3213423,43.7866577 73.532,45.576 C71.7426577,47.3653423 69.6013458,48.26 67.108,48.26 C64.6146542,48.26 62.4733423,47.3653423 60.684,45.576 C58.8946577,43.7866577 58,41.6453458 58,39.152 L58,39.152 Z" id="Path" fill="#000000"></path>
                            <path d="M87,39.152 C87,36.6293207 87.8873245,34.4733423 89.662,32.684 C91.4366755,30.8946577 93.5853207,30 96.108,30 C98.6306793,30 100.779324,30.8946577 102.554,32.684 C104.328676,34.4733423 105.216,36.6293207 105.216,39.152 C105.216,41.6453458 104.321342,43.7866577 102.532,45.576 C100.742658,47.3653423 98.6013458,48.26 96.108,48.26 C93.6146542,48.26 91.4733423,47.3653423 89.684,45.576 C87.8946577,43.7866577 87,41.6453458 87,39.152 L87,39.152 Z" id="Path" fill="#D8D8D8"></path>
                            <path d="M116,39.152 C116,36.6293207 116.887324,34.4733423 118.662,32.684 C120.436676,30.8946577 122.585321,30 125.108,30 C127.630679,30 129.779324,30.8946577 131.554,32.684 C133.328676,34.4733423 134.216,36.6293207 134.216,39.152 C134.216,41.6453458 133.321342,43.7866577 131.532,45.576 C129.742658,47.3653423 127.601346,48.26 125.108,48.26 C122.614654,48.26 120.473342,47.3653423 118.684,45.576 C116.894658,43.7866577 116,41.6453458 116,39.152 L116,39.152 Z" id="Path" fill="#D8D8D8"></path>
                            <path d="M145,39.152 C145,36.6293207 145.887324,34.4733423 147.662,32.684 C149.436676,30.8946577 151.585321,30 154.108,30 C156.630679,30 158.779324,30.8946577 160.554,32.684 C162.328676,34.4733423 163.216,36.6293207 163.216,39.152 C163.216,41.6453458 162.321342,43.7866577 160.532,45.576 C158.742658,47.3653423 156.601346,48.26 154.108,48.26 C151.614654,48.26 149.473342,47.3653423 147.684,45.576 C145.894658,43.7866577 145,41.6453458 145,39.152 L145,39.152 Z" id="Path" fill="#D8D8D8"></path>
                            <path d="M174,39.152 C174,36.6293207 174.887324,34.4733423 176.662,32.684 C178.436676,30.8946577 180.585321,30 183.108,30 C185.630679,30 187.779324,30.8946577 189.554,32.684 C191.328676,34.4733423 192.216,36.6293207 192.216,39.152 C192.216,41.6453458 191.321342,43.7866577 189.532,45.576 C187.742658,47.3653423 185.601346,48.26 183.108,48.26 C180.614654,48.26 178.473342,47.3653423 176.684,45.576 C174.894658,43.7866577 174,41.6453458 174,39.152 L174,39.152 Z" id="Path" fill="#D8D8D8"></path>
                            <path d="M0,69.152 C0,66.6293207 0.88732446,64.4733423 2.662,62.684 C4.43667554,60.8946577 6.58532072,60 9.108,60 C11.6306793,60 13.7793245,60.8946577 15.554,62.684 C17.3286755,64.4733423 18.216,66.6293207 18.216,69.152 C18.216,71.6453458 17.3213423,73.7866577 15.532,75.576 C13.7426577,77.3653423 11.6013458,78.26 9.108,78.26 C6.6146542,78.26 4.47334228,77.3653423 2.684,75.576 C0.89465772,73.7866577 0,71.6453458 0,69.152 L0,69.152 Z" id="Path" fill="#000000"></path>
                            <path d="M29,69.152 C29,66.6293207 29.8873245,64.4733423 31.662,62.684 C33.4366755,60.8946577 35.5853207,60 38.108,60 C40.6306793,60 42.7793245,60.8946577 44.554,62.684 C46.3286755,64.4733423 47.216,66.6293207 47.216,69.152 C47.216,71.6453458 46.3213423,73.7866577 44.532,75.576 C42.7426577,77.3653423 40.6013458,78.26 38.108,78.26 C35.6146542,78.26 33.4733423,77.3653423 31.684,75.576 C29.8946577,73.7866577 29,71.6453458 29,69.152 L29,69.152 Z" id="Path" fill="#000000"></path>
                            <path d="M58,69.152 C58,66.6293207 58.8873245,64.4733423 60.662,62.684 C62.4366755,60.8946577 64.5853207,60 67.108,60 C69.6306793,60 71.7793245,60.8946577 73.554,62.684 C75.3286755,64.4733423 76.216,66.6293207 76.216,69.152 C76.216,71.6453458 75.3213423,73.7866577 73.532,75.576 C71.7426577,77.3653423 69.6013458,78.26 67.108,78.26 C64.6146542,78.26 62.4733423,77.3653423 60.684,75.576 C58.8946577,73.7866577 58,71.6453458 58,69.152 L58,69.152 Z" id="Path" fill="#D8D8D8"></path>
                            <path d="M87,69.152 C87,66.6293207 87.8873245,64.4733423 89.662,62.684 C91.4366755,60.8946577 93.5853207,60 96.108,60 C98.6306793,60 100.779324,60.8946577 102.554,62.684 C104.328676,64.4733423 105.216,66.6293207 105.216,69.152 C105.216,71.6453458 104.321342,73.7866577 102.532,75.576 C100.742658,77.3653423 98.6013458,78.26 96.108,78.26 C93.6146542,78.26 91.4733423,77.3653423 89.684,75.576 C87.8946577,73.7866577 87,71.6453458 87,69.152 L87,69.152 Z" id="Path" fill="#D8D8D8"></path>
                            <path d="M116,69.152 C116,66.6293207 116.887324,64.4733423 118.662,62.684 C120.436676,60.8946577 122.585321,60 125.108,60 C127.630679,60 129.779324,60.8946577 131.554,62.684 C133.328676,64.4733423 134.216,66.6293207 134.216,69.152 C134.216,71.6453458 133.321342,73.7866577 131.532,75.576 C129.742658,77.3653423 127.601346,78.26 125.108,78.26 C122.614654,78.26 120.473342,77.3653423 118.684,75.576 C116.894658,73.7866577 116,71.6453458 116,69.152 L116,69.152 Z" id="Path" fill="#D8D8D8"></path>
                            <path d="M145,69.152 C145,66.6293207 145.887324,64.4733423 147.662,62.684 C149.436676,60.8946577 151.585321,60 154.108,60 C156.630679,60 158.779324,60.8946577 160.554,62.684 C162.328676,64.4733423 163.216,66.6293207 163.216,69.152 C163.216,71.6453458 162.321342,73.7866577 160.532,75.576 C158.742658,77.3653423 156.601346,78.26 154.108,78.26 C151.614654,78.26 149.473342,77.3653423 147.684,75.576 C145.894658,73.7866577 145,71.6453458 145,69.152 L145,69.152 Z" id="Path" fill="#000000"></path>
                            <path d="M174,69.152 C174,66.6293207 174.887324,64.4733423 176.662,62.684 C178.436676,60.8946577 180.585321,60 183.108,60 C185.630679,60 187.779324,60.8946577 189.554,62.684 C191.328676,64.4733423 192.216,66.6293207 192.216,69.152 C192.216,71.6453458 191.321342,73.7866577 189.532,75.576 C187.742658,77.3653423 185.601346,78.26 183.108,78.26 C180.614654,78.26 178.473342,77.3653423 176.684,75.576 C174.894658,73.7866577 174,71.6453458 174,69.152 L174,69.152 Z" id="Path" fill="#D8D8D8"></path>
                            <path d="M0,99.152 C0,96.6293207 0.88732446,94.4733423 2.662,92.684 C4.43667554,90.8946577 6.58532072,90 9.108,90 C11.6306793,90 13.7793245,90.8946577 15.554,92.684 C17.3286755,94.4733423 18.216,96.6293207 18.216,99.152 C18.216,101.645346 17.3213423,103.786658 15.532,105.576 C13.7426577,107.365342 11.6013458,108.26 9.108,108.26 C6.6146542,108.26 4.47334228,107.365342 2.684,105.576 C0.89465772,103.786658 0,101.645346 0,99.152 L0,99.152 Z" id="Path" fill="#D8D8D8"></path>
                            <path d="M29,99.152 C29,96.6293207 29.8873245,94.4733423 31.662,92.684 C33.4366755,90.8946577 35.5853207,90 38.108,90 C40.6306793,90 42.7793245,90.8946577 44.554,92.684 C46.3286755,94.4733423 47.216,96.6293207 47.216,99.152 C47.216,101.645346 46.3213423,103.786658 44.532,105.576 C42.7426577,107.365342 40.6013458,108.26 38.108,108.26 C35.6146542,108.26 33.4733423,107.365342 31.684,105.576 C29.8946577,103.786658 29,101.645346 29,99.152 L29,99.152 Z" id="Path" fill="#D8D8D8"></path>
                            <path d="M58,99.152 C58,96.6293207 58.8873245,94.4733423 60.662,92.684 C62.4366755,90.8946577 64.5853207,90 67.108,90 C69.6306793,90 71.7793245,90.8946577 73.554,92.684 C75.3286755,94.4733423 76.216,96.6293207 76.216,99.152 C76.216,101.645346 75.3213423,103.786658 73.532,105.576 C71.7426577,107.365342 69.6013458,108.26 67.108,108.26 C64.6146542,108.26 62.4733423,107.365342 60.684,105.576 C58.8946577,103.786658 58,101.645346 58,99.152 L58,99.152 Z" id="Path" fill="#000000"></path>
                            <path d="M87,99.152 C87,96.6293207 87.8873245,94.4733423 89.662,92.684 C91.4366755,90.8946577 93.5853207,90 96.108,90 C98.6306793,90 100.779324,90.8946577 102.554,92.684 C104.328676,94.4733423 105.216,96.6293207 105.216,99.152 C105.216,101.645346 104.321342,103.786658 102.532,105.576 C100.742658,107.365342 98.6013458,108.26 96.108,108.26 C93.6146542,108.26 91.4733423,107.365342 89.684,105.576 C87.8946577,103.786658 87,101.645346 87,99.152 L87,99.152 Z" id="Path" fill="#D8D8D8"></path>
                            <path d="M116,99.152 C116,96.6293207 116.887324,94.4733423 118.662,92.684 C120.436676,90.8946577 122.585321,90 125.108,90 C127.630679,90 129.779324,90.8946577 131.554,92.684 C133.328676,94.4733423 134.216,96.6293207 134.216,99.152 C134.216,101.645346 133.321342,103.786658 131.532,105.576 C129.742658,107.365342 127.601346,108.26 125.108,108.26 C122.614654,108.26 120.473342,107.365342 118.684,105.576 C116.894658,103.786658 116,101.645346 116,99.152 L116,99.152 Z" id="Path" fill="#D8D8D8"></path>
                            <path d="M145,99.152 C145,96.6293207 145.887324,94.4733423 147.662,92.684 C149.436676,90.8946577 151.585321,90 154.108,90 C156.630679,90 158.779324,90.8946577 160.554,92.684 C162.328676,94.4733423 163.216,96.6293207 163.216,99.152 C163.216,101.645346 162.321342,103.786658 160.532,105.576 C158.742658,107.365342 156.601346,108.26 154.108,108.26 C151.614654,108.26 149.473342,107.365342 147.684,105.576 C145.894658,103.786658 145,101.645346 145,99.152 L145,99.152 Z" id="Path" fill="#D8D8D8"></path>
                            <path d="M174,99.152 C174,96.6293207 174.887324,94.4733423 176.662,92.684 C178.436676,90.8946577 180.585321,90 183.108,90 C185.630679,90 187.779324,90.8946577 189.554,92.684 C191.328676,94.4733423 192.216,96.6293207 192.216,99.152 C192.216,101.645346 191.321342,103.786658 189.532,105.576 C187.742658,107.365342 185.601346,108.26 183.108,108.26 C180.614654,108.26 178.473342,107.365342 176.684,105.576 C174.894658,103.786658 174,101.645346 174,99.152 L174,99.152 Z" id="Path" fill="#D8D8D8"></path>
                            <path d="M0,129.152 C0,126.629321 0.88732446,124.473342 2.662,122.684 C4.43667554,120.894658 6.58532072,120 9.108,120 C11.6306793,120 13.7793245,120.894658 15.554,122.684 C17.3286755,124.473342 18.216,126.629321 18.216,129.152 C18.216,131.645346 17.3213423,133.786658 15.532,135.576 C13.7426577,137.365342 11.6013458,138.26 9.108,138.26 C6.6146542,138.26 4.47334228,137.365342 2.684,135.576 C0.89465772,133.786658 0,131.645346 0,129.152 L0,129.152 Z" id="Path" fill="#D8D8D8"></path>
                            <path d="M29,129.152 C29,126.629321 29.8873245,124.473342 31.662,122.684 C33.4366755,120.894658 35.5853207,120 38.108,120 C40.6306793,120 42.7793245,120.894658 44.554,122.684 C46.3286755,124.473342 47.216,126.629321 47.216,129.152 C47.216,131.645346 46.3213423,133.786658 44.532,135.576 C42.7426577,137.365342 40.6013458,138.26 38.108,138.26 C35.6146542,138.26 33.4733423,137.365342 31.684,135.576 C29.8946577,133.786658 29,131.645346 29,129.152 L29,129.152 Z" id="Path" fill="#D8D8D8"></path>
                            <path d="M58,129.152 C58,126.629321 58.8873245,124.473342 60.662,122.684 C62.4366755,120.894658 64.5853207,120 67.108,120 C69.6306793,120 71.7793245,120.894658 73.554,122.684 C75.3286755,124.473342 76.216,126.629321 76.216,129.152 C76.216,131.645346 75.3213423,133.786658 73.532,135.576 C71.7426577,137.365342 69.6013458,138.26 67.108,138.26 C64.6146542,138.26 62.4733423,137.365342 60.684,135.576 C58.8946577,133.786658 58,131.645346 58,129.152 L58,129.152 Z" id="Path" fill="#000000"></path>
                            <path d="M87,129.152 C87,126.629321 87.8873245,124.473342 89.662,122.684 C91.4366755,120.894658 93.5853207,120 96.108,120 C98.6306793,120 100.779324,120.894658 102.554,122.684 C104.328676,124.473342 105.216,126.629321 105.216,129.152 C105.216,131.645346 104.321342,133.786658 102.532,135.576 C100.742658,137.365342 98.6013458,138.26 96.108,138.26 C93.6146542,138.26 91.4733423,137.365342 89.684,135.576 C87.8946577,133.786658 87,131.645346 87,129.152 L87,129.152 Z" id="Path" fill="#000000"></path>
                            <path d="M116,129.152 C116,126.629321 116.887324,124.473342 118.662,122.684 C120.436676,120.894658 122.585321,120 125.108,120 C127.630679,120 129.779324,120.894658 131.554,122.684 C133.328676,124.473342 134.216,126.629321 134.216,129.152 C134.216,131.645346 133.321342,133.786658 131.532,135.576 C129.742658,137.365342 127.601346,138.26 125.108,138.26 C122.614654,138.26 120.473342,137.365342 118.684,135.576 C116.894658,133.786658 116,131.645346 116,129.152 L116,129.152 Z" id="Path" fill="#D8D8D8"></path>
                            <path d="M145,129.152 C145,126.629321 145.887324,124.473342 147.662,122.684 C149.436676,120.894658 151.585321,120 154.108,120 C156.630679,120 158.779324,120.894658 160.554,122.684 C162.328676,124.473342 163.216,126.629321 163.216,129.152 C163.216,131.645346 162.321342,133.786658 160.532,135.576 C158.742658,137.365342 156.601346,138.26 154.108,138.26 C151.614654,138.26 149.473342,137.365342 147.684,135.576 C145.894658,133.786658 145,131.645346 145,129.152 L145,129.152 Z" id="Path" fill="#D8D8D8"></path>
                            <path d="M174,129.152 C174,126.629321 174.887324,124.473342 176.662,122.684 C178.436676,120.894658 180.585321,120 183.108,120 C185.630679,120 187.779324,120.894658 189.554,122.684 C191.328676,124.473342 192.216,126.629321 192.216,129.152 C192.216,131.645346 191.321342,133.786658 189.532,135.576 C187.742658,137.365342 185.601346,138.26 183.108,138.26 C180.614654,138.26 178.473342,137.365342 176.684,135.576 C174.894658,133.786658 174,131.645346 174,129.152 L174,129.152 Z" id="Path" fill="#D8D8D8"></path>
                        </g>
                        <polyline id="Line" stroke="#FFFFFF" stroke-width="1.5" stroke-linecap="square" points="64 39.188447 66.3057766 41.4942236 70.8000002 37"></polyline>
                        <polyline id="Line" stroke="#FFFFFF" stroke-width="1.5" stroke-linecap="square" points="64 9.188447 66.3057766 11.4942236 70.8000002 7"></polyline>
                        <polyline id="Line" stroke="#FFFFFF" stroke-width="1.5" stroke-linecap="square" points="35 69.188447 37.3057766 71.4942236 41.8000002 67"></polyline>
                        <polyline id="Line" stroke="#FFFFFF" stroke-width="1.5" stroke-linecap="square" points="64 129.188447 66.3057766 131.494224 70.8000002 127"></polyline>
                        <polyline id="Line" stroke="#FFFFFF" stroke-width="1.5" stroke-linecap="square" points="64 99.188447 66.3057766 101.494224 70.8000002 97"></polyline>
                        <polyline id="Line" stroke="#FFFFFF" stroke-width="1.5" stroke-linecap="square" points="93 129.188447 95.3057766 131.494224 99.8000002 127"></polyline>
                        <polyline id="Line" stroke="#FFFFFF" stroke-width="1.5" stroke-linecap="square" points="151 69.188447 153.305777 71.4942236 157.8 67"></polyline>
                        <polyline id="Line" stroke="#FFFFFF" stroke-width="1.5" stroke-linecap="square" points="6 69.188447 8.30577659 71.4942236 12.8000002 67"></polyline>
                        <polyline id="Line" stroke="#FFFFFF" stroke-width="1.5" stroke-linecap="square" points="35 69.188447 37.3057766 71.4942236 41.8000002 67"></polyline>
                    </g>
                </g>
            </g>
        </g>
    </g>
</svg>